<?xml version="1.0" encoding="utf-8"?>
<!-- Generator: Adobe Illustrator 23.0.1, SVG Export Plug-In . SVG Version: 6.00 Build 0)  -->
<svg version="1.1" id="Layer_1" xmlns="http://www.w3.org/2000/svg" xmlns:xlink="http://www.w3.org/1999/xlink" x="0px" y="0px"
	 viewBox="0 0 256 68" style="enable-background:new 0 0 256 68;" xml:space="preserve">
<style type="text/css">
	.st0{fill-rule:evenodd;clip-rule:evenodd;fill:#333333;}
	.st1{fill:#333333;}
</style>
<g>
	<g>
		<polygon class="st0" points="216.1,51.8 204,16.5 210.6,16.5 218.9,42.5 227.5,16.4 232.7,16.4 241.2,42.5 249.6,16.5 256,16.5 
			243.9,51.8 238.6,51.8 230,26.6 221.4,51.8 		"/>
		<path class="st0" d="M182.5,15.9c-10.7,0-18.3,8.3-18.3,18.1v0.1c0,9.9,7.5,18,18.2,18s18.3-8.3,18.3-18.1v-0.1
			C200.7,24,193.2,15.9,182.5,15.9z M194.3,34.1c0,6.8-4.8,12.3-11.8,12.3s-11.9-5.6-11.9-12.4v-0.1c0-6.8,4.8-12.3,11.8-12.3
			S194.3,27.2,194.3,34.1L194.3,34.1z"/>
		<path class="st0" d="M149.2,38.3c4.8-1.4,8.3-4.9,8.3-10.6v-0.1c0-3.1-1.1-5.7-2.9-7.6c-2.2-2.2-5.7-3.5-10.1-3.5H129v35.1h6.1
			V39.3h7.7l8.6,12.2h7.3L149.2,38.3z M135.1,33.8V22.1h8.9c4.5,0,7.2,2.1,7.2,5.8V28c0,3.6-2.8,5.9-7.2,5.9L135.1,33.8L135.1,33.8z
			"/>
		<path class="st0" d="M104.8,52.2c-10.9,0-18.1-7.8-18.1-18V34c0-9.8,7.5-18.1,18-18.1c6.1,0,9.8,1.7,13.4,4.8l-3.9,4.7
			c-2.7-2.3-5.3-3.7-9.8-3.7c-6.4,0-11.3,5.6-11.3,12.3V34c0,7.2,4.7,12.5,11.9,12.5c3.3,0,6.3-1,8.4-2.7v-6.5h-8.9v-5.4h14.8v14.7
			C115.9,49.7,110.9,52.2,104.8,52.2z"/>
	</g>
	<path class="st1" d="M57.6,58c-3.1,3.1-6.7,5.6-10.7,7.3c-2,0.9-4.2,1.5-6.3,2c-4.5,0.9-9.1,0.9-13.6,0c-4.3-0.9-8.4-2.6-12.1-5.1
		c-1.4-0.9-2.6-1.9-3.8-3c1.5,0.3,3,0.5,4.5,0.5c0.4,0,0.9,0,1.4,0c5.6-0.3,12.4-2.8,20.8-7.5c1.2-0.6,2.3-1.2,3.4-1.8
		c3.1,1.7,6.1,2.8,9,3.3c1.2,0.2,2.5,0.3,3.8,0.3c2.8,0,5.6-0.6,8.3-1.8c-0.2,0.3-0.3,0.5-0.5,0.8C60.5,54.8,59.1,56.5,57.6,58z
		 M7.6,39.5c3.2-3,6.4-4.7,9.4-5c1.5-0.1,3,0.1,4.4,0.6c1.6,0.6,3.2,1.8,4.8,3.3c-0.5,0.5-0.9,0.8-1.4,1.2c-3.1,2.5-6.2,4.7-9.3,6.5
		c-2.5,1.5-5,2.7-7.2,3.6c-1.7,0.7-2.8,1-3.6,1.2c-0.7-1.2-1.3-2.5-1.9-3.8c-0.2-0.5-0.4-0.9-0.5-1.4C3.2,44.3,5.1,41.7,7.6,39.5z
		 M0.7,27.1c0.9-4.4,2.6-8.5,5.1-12.1c3.7-5.5,8.8-9.8,14.8-12.3c2-0.9,4.2-1.5,6.3-2c4.5-0.9,9.1-0.9,13.6,0
		c4.3,0.9,8.4,2.6,12,5.1c5.4,3.7,9.7,8.9,12.2,15c0.9,2.1,1.5,4.2,2,6.4c0.9,4.4,0.9,9,0.1,13.5c-1.3-2.1-3-4.6-5.1-7
		c-4.7-5.6-9.4-8.7-14-9.3c-2.1-0.3-4.2,0-6.2,0.8c-2.1,0.9-4.2,2.4-6.1,4.4C33.3,31.9,31.2,34,29,36c-0.1-0.1-0.1-0.1-0.2-0.2
		c-3.7-3.8-7.9-5.5-12.2-5C9.8,31.4,4.1,37.1,0.8,41.3c0-0.2-0.1-0.3-0.1-0.5C-0.2,36.3-0.2,31.7,0.7,27.1L0.7,27.1z M50.1,47.3
		c3.2-0.7,6.3-0.9,9.2-0.6c1.4,0.1,2.7,0.4,4,0.7c-1.5,0.9-3,1.6-4.6,2.1c-2.6,0.8-5.2,0.9-7.9,0.4c-1.6-0.3-3.2-0.8-4.9-1.5
		C47.3,48,48.7,47.6,50.1,47.3L50.1,47.3z M41,45.9c-2.9-1.8-6-4.2-9.3-7.2c2.2-2,4.4-4.2,6.5-6.5c1.5-1.7,3.1-2.8,4.7-3.5
		c1.4-0.6,2.8-0.8,4.3-0.6c1.9,0.2,3.9,1.1,6,2.6c1.8,1.3,3.7,3.1,5.6,5.3c2.3,2.7,4.2,5.6,5.5,7.7c-1.5-0.4-3-0.7-4.5-0.8
		c-3.3-0.3-6.8-0.1-10.4,0.6c-2.7,0.6-5.4,1.4-8.1,2.6C41.3,46,41.2,46,41,45.9L41,45.9z M7.8,54c2.2-0.8,5.4-2.1,9.5-4.5
		c3.2-1.9,6.5-4.2,9.8-6.9c0.6-0.5,1.2-1,1.8-1.5c2.9,2.7,5.8,5,8.5,6.9c-0.5,0.2-1,0.5-1.4,0.8c-8,4.4-14.2,6.8-19.2,7.1
		C12.8,56.1,10.2,55.1,7.8,54z"/>
</g>
</svg>
